<svg viewBox="0 0 24 24" xmlns="http://www.w3.org/2000/svg"><g fill="#333"><path d="m12 13a1 1 0 0 1 -1-1 1 1 0 0 1 .08-.38 1 1 0 0 1 .21-.33l.15-.12.18-.09.18-.08a1 1 0 0 1 .91.27 1.15 1.15 0 0 1 .21.33 1 1 0 0 1 .08.4 1 1 0 0 1 -1 1z"/><path d="m12 13a1 1 0 0 1 -1-1 1 1 0 0 1 .08-.38 1 1 0 0 1 .21-.33l.15-.12.18-.09.18-.08a1 1 0 0 1 .91.27 1.15 1.15 0 0 1 .21.33 1 1 0 0 1 .08.4 1 1 0 0 1 -1 1z"/><path d="m12 13a1 1 0 0 1 -1-1 1 1 0 0 1 .08-.38 1 1 0 0 1 .21-.33l.15-.12.18-.09.18-.08a1 1 0 0 1 .91.27 1.15 1.15 0 0 1 .21.33 1 1 0 0 1 .08.4 1 1 0 0 1 -1 1z"/><path d="m7.5 20.79a1 1 0 0 1 -.5-.14 10 10 0 0 1 -5-8.65 1 1 0 0 1 1-1h9a1 1 0 0 1 .87.5 1 1 0 0 1 0 1l-4.5 7.79a1 1 0 0 1 -.61.46.75.75 0 0 1 -.26.04zm-3.44-7.79a8.06 8.06 0 0 0 3.11 5.37l3.1-5.37z"/><path d="m16.5 20.79a.75.75 0 0 1 -.26 0 1 1 0 0 1 -.61-.46l-4.5-7.79a1 1 0 1 1 1.74-1l4 6.87a8.06 8.06 0 0 0 3.07-5.41h-2.85a1 1 0 0 1 0-2h3.91a1 1 0 0 1 1 1 10 10 0 0 1 -5 8.65 1 1 0 0 1 -.5.14z"/><path d="m12 13a1 1 0 0 1 -.87-.5l-4.49-7.79a1 1 0 0 1 .36-1.36 10.08 10.08 0 0 1 10 0 1 1 0 0 1 .36 1.36l-4.49 7.79a1 1 0 0 1 -.87.5zm-3.1-8.37 3.1 5.37 3.1-5.37a8 8 0 0 0 -6.2 0z"/><path d="m12 9a3 3 0 1 0 3 3 3 3 0 0 0 -3-3z"/></g></svg>