<?xml version="1.0" encoding="utf-8"?>
<svg viewBox="0 0 400 400" xmlns="http://www.w3.org/2000/svg">
  <ellipse style="stroke: rgb(0, 0, 0); fill: rgba(216, 216, 216, 0); fill-rule: nonzero; stroke-width: 16px; vector-effect: non-scaling-stroke; paint-order: stroke; stroke-linecap: round; stroke-miterlimit: 30;" cx="199.926" cy="199.463" rx="189.242" ry="189.242"/>
  <g id="svgg" transform="matrix(1.106971025467, 0, 0, 1.106971025467, -10.184858322144, -17.529892207036)" style="transform-origin: 200px 199.578px;">
    <path id="path0" d="M257.466 76.736 C 255.779 79.145,255.787 88.488,257.478 90.179 C 261.341 94.041,264.844 90.755,264.844 83.268 C 264.844 75.604,260.780 72.006,257.466 76.736 M224.730 92.835 C 222.610 95.178,223.154 97.844,226.400 101.013 C 229.961 104.491,232.944 104.843,234.803 102.006 C 237.566 97.790,228.070 89.145,224.730 92.835 M289.521 94.552 C 285.598 98.168,284.866 100.019,286.459 102.293 C 288.397 105.060,291.551 104.381,295.213 100.408 C 298.826 96.488,298.773 96.628,297.539 94.285 C 295.541 90.489,293.868 90.545,289.521 94.552 M254.632 104.932 C 235.757 110.248,229.456 133.222,243.153 146.783 C 258.706 162.182,285.417 151.130,285.417 129.297 C 285.417 113.263,269.573 100.723,254.632 104.932 M157.813 109.279 C 150.309 111.744,144.096 117.600,141.432 124.719 C 139.885 128.854,139.844 130.547,139.844 189.399 L 139.844 249.834 135.352 254.430 C 109.253 281.134,127.875 324.828,165.234 324.544 C 202.402 324.262,220.239 279.392,193.405 253.680 L 189.889 250.312 189.671 188.632 C 189.426 119.197,189.864 124.206,183.384 116.772 C 177.736 110.292,165.576 106.729,157.813 109.279 M267.633 113.979 C 281.716 120.375,279.684 141.316,264.586 145.382 C 252.301 148.690,240.920 136.579,244.642 124.158 C 247.439 114.821,258.604 109.878,267.633 113.979 M169.592 117.298 C 173.255 118.395,177.706 121.972,179.508 125.266 C 180.748 127.530,180.892 132.945,181.250 190.745 L 181.641 253.756 186.887 258.563 C 211.307 280.938,192.735 320.743,159.967 316.262 C 131.943 312.429,121.631 278.305,142.575 258.713 L 147.656 253.960 147.656 193.137 C 147.656 125.000,147.509 126.968,152.996 121.610 C 157.798 116.921,163.441 115.455,169.592 117.298 M207.543 126.429 C 204.121 130.210,207.355 133.594,214.389 133.594 C 222.145 133.594,225.056 131.101,222.268 126.848 C 220.636 124.357,209.699 124.046,207.543 126.429 M299.805 125.844 C 298.006 126.892,298.042 130.650,299.866 132.301 C 303.635 135.712,314.844 133.262,314.844 129.027 C 314.844 125.469,304.285 123.234,299.805 125.844 M85.156 137.500 L 85.156 141.406 100.000 141.406 L 114.844 141.406 114.844 137.500 L 114.844 133.594 100.000 133.594 L 85.156 133.594 85.156 137.500 M102.344 154.297 L 102.344 158.594 108.594 158.594 L 114.844 158.594 114.844 154.297 L 114.844 150.000 108.594 150.000 L 102.344 150.000 102.344 154.297 M227.021 157.052 C 221.888 161.784,222.020 166.406,227.289 166.406 C 230.365 166.406,236.254 160.091,235.511 157.588 C 234.192 153.141,231.452 152.968,227.021 157.052 M287.230 155.335 C 285.110 157.678,285.654 160.344,288.900 163.513 C 292.461 166.991,295.444 167.343,297.303 164.506 C 300.066 160.290,290.570 151.645,287.230 155.335 M161.875 159.531 C 161.165 160.242,160.938 173.100,160.938 212.620 L 160.938 264.771 157.563 266.264 C 139.125 274.419,144.679 301.563,164.786 301.563 C 178.662 301.563,187.415 287.314,181.171 274.889 C 179.402 271.368,174.016 266.657,171.002 265.996 L 168.750 265.501 168.750 213.275 C 168.750 166.839,168.614 160.913,167.522 159.821 C 166.065 158.364,163.190 158.217,161.875 159.531 M102.344 170.703 L 102.344 175.000 108.594 175.000 L 114.844 175.000 114.844 170.703 L 114.844 166.406 108.594 166.406 L 102.344 166.406 102.344 170.703 M257.813 167.969 C 254.214 171.567,256.319 183.594,260.547 183.594 C 263.387 183.594,264.844 180.680,264.844 175.000 C 264.844 169.320,263.387 166.406,260.547 166.406 C 259.902 166.406,258.672 167.109,257.813 167.969 M85.156 187.500 L 85.156 191.406 100.000 191.406 L 114.844 191.406 114.844 187.500 L 114.844 183.594 100.000 183.594 L 85.156 183.594 85.156 187.500 M102.344 204.297 L 102.344 208.594 108.594 208.594 L 114.844 208.594 114.844 204.297 L 114.844 200.000 108.594 200.000 L 102.344 200.000 102.344 204.297 M102.344 220.703 L 102.344 225.000 108.594 225.000 L 114.844 225.000 114.844 220.703 L 114.844 216.406 108.594 216.406 L 102.344 216.406 102.344 220.703 M85.156 237.500 L 85.156 241.406 100.000 241.406 L 114.844 241.406 114.844 237.500 L 114.844 233.594 100.000 233.594 L 85.156 233.594 85.156 237.500 M171.516 276.048 C 175.959 280.491,176.079 286.301,171.815 290.565 C 165.501 296.878,154.688 292.357,154.688 283.403 C 154.688 274.521,165.336 269.867,171.516 276.048 " stroke="none" fill="#000000" fill-rule="evenodd"/>
  </g>
</svg>