<?xml version="1.0" encoding="utf-8"?>
<svg viewBox="0 0 400 400" xmlns="http://www.w3.org/2000/svg">
  <ellipse style="stroke: rgb(0, 0, 0); fill: rgba(216, 216, 216, 0); fill-rule: nonzero; stroke-width: 16px; vector-effect: non-scaling-stroke; paint-order: stroke; stroke-linecap: round; stroke-miterlimit: 30;" cx="199.926" cy="201.463" rx="189.242" ry="189.242"/>
  <g id="svgg" transform="matrix(0.7649019956588745, 0, 0, 0.7649019956588745, 54.11940765380854, 38.35747146606445)" style="">
    <path id="path0" d="M 135.897 28.621 C 124.941 32.7 126.613 30.21 73.757 121.105 C 18.619 215.922 18.379 216.387 13.92 236.743 C -12.993 359.599 130.978 449.379 228.739 370.704 C 254.411 350.045 281.29 303.977 273.86 293.371 C 268.831 286.189 262.04 289.927 258.224 301.974 C 246.037 340.452 212.855 371.513 173.403 381.371 C 77.212 405.41 -5.276 304.177 37.776 214.925 C 44.741 200.485 134.187 47.82 137.033 45.512 C 142.583 41.013 152.05 42.544 155.943 48.571 C 161.516 57.198 249.582 209.618 252.48 215.652 C 254.401 219.652 257.158 226.619 258.607 231.135 C 261.487 240.113 262.842 241.762 267.338 241.762 C 280.073 241.762 276.357 224.902 255.779 189.331 C 251.108 181.254 247.285 174.463 247.285 174.239 C 247.285 174.016 268.663 173.832 294.793 173.832 C 337.335 173.832 342.675 173.705 345.879 172.614 C 364.788 166.171 369.071 121.368 353.716 90.632 C 322.979 29.106 235.334 22.779 198.551 79.43 C 196.811 82.109 195.151 84.154 194.859 83.974 C 194.569 83.795 188.497 73.584 181.367 61.284 C 167.238 36.91 164.476 33.322 157.273 29.993 C 152.229 27.661 140.497 26.908 135.897 28.621 M 266.923 63.186 C 266.923 72.086 268.314 74.194 274.195 74.194 C 280.228 74.194 282.195 70.953 282.195 61.012 C 282.195 55.155 281.624 55.36 291.161 57.78 C 301.768 60.471 312.735 66.047 321.106 73.006 L 323.287 74.82 L 319.917 78.325 C 309.682 88.968 319.111 100.271 329.794 90.167 L 333.667 86.503 L 336.515 91.076 C 342.307 100.377 346.474 112.427 347.427 122.632 L 347.861 127.286 L 342.609 127.286 C 335.972 127.286 333.105 129.48 333.105 134.559 C 333.105 139.513 336.005 141.832 342.199 141.832 L 347.039 141.832 L 346.557 144.195 C 343.455 159.383 345.017 158.625 317.342 158.388 L 294.809 158.196 L 302.684 135.692 C 307.016 123.315 310.56 112.423 310.56 111.486 C 310.56 105.853 305.897 101.558 300.304 102.037 C 296.558 102.358 258.681 128.055 253.86 133.545 C 249.05 139.024 246.88 149.199 248.943 156.59 L 249.509 158.619 L 243.601 158.408 L 237.692 158.196 L 220.983 129.468 L 204.275 100.74 L 205.811 97.565 C 206.656 95.82 208.494 92.596 209.897 90.403 L 212.448 86.416 L 216.368 90.123 C 226.713 99.906 236.46 88.611 226.447 78.446 C 222.444 74.38 222.372 74.558 230.179 69.16 C 240.23 62.212 255.941 56.155 264.195 56.047 L 266.923 56.012 L 266.923 63.186 M 284.835 140.051 C 279.934 154.006 277.944 157.213 273.59 158.169 C 266.457 159.736 260.693 150.845 264.922 144.799 C 266.25 142.899 288.712 126.335 289.263 126.849 C 289.35 126.93 287.357 132.871 284.835 140.051 M 154.01 194.982 C 150.618 196.958 150.556 197.703 150.556 236.235 C 150.556 260.239 150.821 273.287 151.337 274.77 C 153.042 279.66 159.882 280.985 163.703 277.164 L 165.829 275.038 L 165.829 258.982 L 165.829 242.925 L 182.557 242.925 L 199.284 242.925 L 199.284 258.247 C 199.284 268.098 199.574 274.134 200.097 275.156 C 202.474 279.804 208.766 280.829 212.431 277.164 L 214.558 275.038 L 214.558 236.743 L 214.558 198.449 L 212.431 196.323 C 210.766 194.657 209.653 194.197 207.293 194.197 C 200.09 194.197 199.284 196.169 199.284 213.797 L 199.284 227.652 L 182.557 227.652 L 165.829 227.652 L 165.829 213.051 L 165.829 198.449 L 163.703 196.323 C 161.433 194.053 156.724 193.402 154.01 194.982 M 75.35 217.853 C 71.149 220.045 71.329 217.989 71.304 263.824 L 71.281 306.176 L 73.33 308.469 C 74.98 310.316 75.942 310.761 78.283 310.761 C 85.575 310.761 86.555 308.342 86.555 290.307 L 86.555 276.55 L 90.755 278.247 C 111.088 286.459 132.982 272.636 134.384 250.699 C 135.914 226.773 111.571 209.967 89.813 219.928 C 85.858 221.739 85.828 221.741 85.045 220.276 C 83.463 217.322 78.668 216.124 75.35 217.853 M 107.199 233.045 C 125.374 238.515 121.826 265.042 102.919 265.042 C 84.184 265.042 80.28 238.695 98.191 233.134 C 102.42 231.82 103.106 231.814 107.199 233.045 M 266.139 261.051 C 263.715 263.476 263.365 266.472 265.111 269.85 C 267.889 275.221 276.206 274.787 278.541 269.149 C 281.727 261.458 272.05 255.14 266.139 261.051" stroke="none" fill="#000000" fill-rule="evenodd" style=""/>
  </g>
</svg>