<svg id="svg" version="1.1" xmlns="http://www.w3.org/2000/svg" xmlns:xlink="http://www.w3.org/1999/xlink" width="400" height="400" viewBox="0, 0, 400,400"><g id="svgg"><path id="path0" d="M196.672 14.258 C 195.343 15.270,131.233 125.879,126.372 135.547 C 101.414 185.185,135.385 247.779,190.039 252.859 C 195.144 253.334,195.313 253.418,195.313 255.485 C 195.313 258.942,193.519 259.723,184.452 260.214 C 175.893 260.677,172.641 261.703,168.869 265.130 C 162.258 271.138,162.258 283.550,168.869 289.557 C 173.949 294.173,173.536 294.121,207.018 294.371 C 241.307 294.626,241.406 294.643,241.406 300.050 C 241.406 305.399,240.126 305.818,222.462 306.250 L 206.501 306.641 203.247 308.898 C 199.176 311.721,197.098 315.038,196.013 320.438 C 195.216 324.407,194.970 324.732,191.766 326.057 C 180.419 330.750,176.953 337.876,176.953 356.513 C 176.953 371.817,177.485 373.437,182.508 373.437 C 184.280 373.438,184.375 373.690,184.375 378.379 C 184.375 389.889,195.214 390.114,195.946 378.620 L 196.276 373.438 201.654 373.438 L 207.031 373.438 207.031 378.379 C 207.031 390.055,217.868 390.141,218.611 378.471 C 218.876 374.322,219.172 373.438,220.298 373.438 C 221.050 373.438,222.591 372.709,223.723 371.818 L 225.781 370.199 225.781 356.983 C 225.781 337.440,220.969 328.273,209.180 325.361 C 206.572 324.717,206.292 322.181,208.523 319.422 C 209.982 317.619,210.367 317.570,225.966 317.188 C 241.730 316.801,241.956 316.772,245.134 314.666 C 254.214 308.651,255.437 296.174,247.725 288.226 C 242.545 282.887,242.074 282.822,208.363 282.817 L 178.835 282.812 176.918 280.895 C 171.860 275.837,175.755 271.878,185.799 271.867 C 199.014 271.854,207.031 265.669,207.031 255.487 C 207.031 253.472,207.261 253.360,213.326 252.432 C 266.943 244.224,297.995 184.037,273.630 135.547 C 268.814 125.962,204.651 15.275,203.322 14.258 C 202.620 13.721,201.125 13.281,200.000 13.281 C 198.875 13.281,197.378 13.721,196.672 14.258 M230.566 83.203 C 269.954 151.340,270.385 152.298,270.370 171.692 C 270.330 221.439,219.864 255.467,173.552 236.974 C 134.884 221.534,117.668 173.655,137.924 137.891 C 138.898 136.172,151.571 114.199,166.086 89.063 C 180.602 63.926,194.041 40.621,195.950 37.273 C 197.859 33.926,199.722 31.289,200.090 31.414 C 200.458 31.539,214.172 54.844,230.566 83.203 M175.958 123.261 C 174.761 124.458,160.887 167.602,160.924 170.012 C 160.982 173.750,163.937 175.000,172.713 175.000 C 177.408 175.000,181.246 175.264,181.241 175.586 C 181.237 175.908,180.006 185.648,178.507 197.231 C 174.784 225.995,174.906 227.344,181.243 227.344 C 183.838 227.344,239.063 172.389,239.063 169.807 C 239.063 165.088,236.667 164.063,225.641 164.063 C 217.294 164.063,215.533 163.868,215.872 162.982 C 217.530 158.661,227.344 127.747,227.344 126.845 C 227.344 126.221,226.481 124.847,225.426 123.793 L 223.509 121.875 200.426 121.875 C 179.367 121.875,177.222 121.996,175.958 123.261 M213.281 133.709 C 213.281 134.202,210.820 142.109,207.813 151.281 C 200.275 174.264,200.409 175.000,212.109 175.000 C 215.762 175.000,218.750 175.267,218.750 175.594 C 218.750 175.920,212.070 182.860,203.906 191.016 C 195.742 199.171,189.063 205.289,189.063 204.611 C 189.063 203.933,189.964 196.554,191.065 188.214 C 194.341 163.402,194.579 164.063,182.335 164.063 C 176.214 164.063,175.000 163.861,175.000 162.845 C 175.000 161.426,182.675 136.201,183.722 134.180 C 184.595 132.493,213.281 132.036,213.281 133.709 M209.117 338.097 C 212.920 340.805,214.281 344.619,214.689 353.711 L 215.049 361.719 201.665 361.719 L 188.281 361.719 188.281 354.072 C 188.281 338.718,198.733 330.704,209.117 338.097 " stroke="none" fill="#000000" fill-rule="evenodd"></path></g></svg>