<svg id="svg" xmlns="http://www.w3.org/2000/svg" xmlns:xlink="http://www.w3.org/1999/xlink" width="400" height="400" viewBox="0, 0, 400,400"><g id="svgg"><path id="path0" d="M191.358 32.101 C 136.845 35.820,92.987 82.981,92.976 137.891 C 92.969 177.875,123.755 230.916,180.365 288.453 C 200.862 309.286,199.084 309.249,218.844 289.250 C 275.904 231.494,307.031 178.066,307.024 137.891 C 307.013 83.773,262.787 35.382,210.579 32.364 C 206.694 32.139,202.637 31.862,201.563 31.747 C 200.488 31.632,195.896 31.791,191.358 32.101 M208.052 104.290 C 239.514 112.485,245.216 153.337,217.188 169.737 C 192.493 184.186,160.930 162.399,164.951 133.680 C 167.773 113.524,188.705 99.251,208.052 104.290 M130.859 272.724 C 42.248 302.714,89.383 367.916,199.738 368.007 C 310.425 368.097,357.718 303.275,269.274 272.697 C 259.899 269.456,260.682 269.153,251.337 279.646 L 243.025 288.980 247.461 291.518 C 279.103 309.622,251.552 334.674,200.000 334.674 C 148.448 334.674,120.897 309.622,152.539 291.518 L 156.975 288.980 148.663 279.646 C 139.300 269.132,140.311 269.526,130.859 272.724 " stroke="none" fill="#000000" fill-rule="evenodd"></path></g></svg>