<svg id="svg" version="1.1" xmlns="http://www.w3.org/2000/svg" xmlns:xlink="http://www.w3.org/1999/xlink" width="400" height="400" viewBox="0, 0, 400,400"><g id="svgg"><path id="path0" d="M145.191 1.046 C 133.422 5.427,135.218 2.753,78.441 100.391 C 19.212 202.243,18.954 202.743,14.164 224.609 C -14.745 356.580,139.907 453.021,244.922 368.509 C 272.498 346.317,301.371 296.831,293.390 285.438 C 287.988 277.724,280.693 281.739,276.594 294.680 C 263.503 336.013,227.859 369.378,185.480 379.968 C 82.152 405.790,-6.456 297.046,39.790 201.172 C 47.272 185.661,143.354 21.669,146.412 19.190 C 152.373 14.357,162.543 16.002,166.725 22.476 C 172.711 31.743,267.311 195.472,270.424 201.953 C 272.487 206.250,275.449 213.734,277.005 218.585 C 280.099 228.229,281.555 230.000,286.384 230.000 C 300.064 230.000,296.072 211.890,273.968 173.679 C 268.950 165.003,264.844 157.708,264.844 157.468 C 264.844 157.228,287.808 157.031,315.876 157.031 C 361.575 157.031,367.311 156.894,370.753 155.722 C 391.064 148.801,395.665 100.674,379.171 67.658 C 346.153 1.567,252.006 -5.230,212.494 55.624 C 210.625 58.502,208.841 60.699,208.528 60.506 C 208.216 60.313,201.694 49.345,194.035 36.132 C 178.858 9.950,175.891 6.096,168.153 2.520 C 162.735 0.015,150.133 -0.794,145.191 1.046 M285.938 38.175 C 285.938 47.736,287.433 50.000,293.750 50.000 C 300.231 50.000,302.344 46.519,302.344 35.840 C 302.344 29.548,301.730 29.769,311.975 32.368 C 323.369 35.259,335.150 41.249,344.141 48.724 L 346.484 50.673 342.864 54.438 C 331.870 65.870,341.998 78.012,353.474 67.158 L 357.635 63.222 360.694 68.135 C 366.916 78.126,371.392 91.070,372.415 102.032 L 372.882 107.031 367.240 107.031 C 360.111 107.031,357.031 109.388,357.031 114.844 C 357.031 120.165,360.146 122.656,366.799 122.656 L 371.999 122.656 371.481 125.195 C 368.149 141.510,369.827 140.695,340.098 140.441 L 315.894 140.234 324.353 116.061 C 329.006 102.765,332.813 91.065,332.813 90.059 C 332.813 84.008,327.804 79.394,321.796 79.909 C 317.772 80.254,277.085 107.857,271.906 113.755 C 266.740 119.640,264.408 130.570,266.624 138.509 L 267.233 140.689 260.886 140.462 L 254.539 140.234 236.590 109.375 L 218.642 78.516 220.292 75.105 C 221.200 73.230,223.175 69.767,224.682 67.412 L 227.422 63.129 231.633 67.111 C 242.745 77.620,253.215 65.487,242.459 54.567 C 238.159 50.200,238.082 50.391,246.468 44.593 C 257.265 37.129,274.142 30.623,283.008 30.507 L 285.938 30.469 285.938 38.175 M305.180 120.743 C 299.915 135.734,297.777 139.178,293.100 140.205 C 285.438 141.889,279.246 132.338,283.789 125.843 C 285.216 123.803,309.344 106.010,309.936 106.562 C 310.029 106.649,307.889 113.030,305.180 120.743 M164.648 179.750 C 161.005 181.872,160.938 182.673,160.938 224.063 C 160.938 249.848,161.222 263.864,161.777 265.457 C 163.608 270.710,170.956 272.133,175.060 268.029 L 177.344 265.745 177.344 248.498 L 177.344 231.250 195.313 231.250 L 213.281 231.250 213.281 247.708 C 213.281 258.290,213.593 264.774,214.154 265.872 C 216.708 270.865,223.467 271.966,227.404 268.029 L 229.688 265.745 229.688 224.609 L 229.688 183.474 227.404 181.190 C 225.615 179.401,224.419 178.906,221.884 178.906 C 214.147 178.906,213.281 181.025,213.281 199.961 L 213.281 214.844 195.313 214.844 L 177.344 214.844 177.344 199.159 L 177.344 183.474 175.060 181.190 C 172.622 178.752,167.563 178.053,164.648 179.750 M80.152 204.318 C 75.639 206.672,75.833 204.464,75.806 253.699 L 75.781 299.194 77.982 301.657 C 79.755 303.641,80.788 304.119,83.303 304.119 C 91.136 304.119,92.188 301.520,92.188 282.147 L 92.188 267.369 96.700 269.192 C 118.542 278.014,142.060 263.165,143.566 239.601 C 145.209 213.899,119.060 195.847,95.688 206.547 C 91.440 208.492,91.408 208.494,90.566 206.920 C 88.867 203.747,83.716 202.460,80.152 204.318 M114.364 220.637 C 133.888 226.513,130.076 255.008,109.766 255.008 C 89.641 255.008,85.448 226.706,104.688 220.732 C 109.230 219.321,109.967 219.314,114.364 220.637 M285.096 250.721 C 282.493 253.325,282.117 256.544,283.992 260.172 C 286.976 265.942,295.910 265.476,298.419 259.419 C 301.841 251.158,291.446 244.371,285.096 250.721 " stroke="none" fill="#000000" fill-rule="evenodd"></path></g></svg>