<?xml version="1.0" encoding="utf-8"?>
<!-- Svg Vector Icons : http://www.onlinewebfonts.com/icon -->
<!DOCTYPE svg PUBLIC "-//W3C//DTD SVG 1.1//EN" "http://www.w3.org/Graphics/SVG/1.1/DTD/svg11.dtd">
<svg version="1.1" xmlns="http://www.w3.org/2000/svg" xmlns:xlink="http://www.w3.org/1999/xlink" x="0px" y="0px" viewBox="0 0 256 256" enable-background="new 0 0 256 256" xml:space="preserve">
<metadata> Svg Vector Icons : http://www.onlinewebfonts.com/icon </metadata>
<g><g><path fill="#000000" d="M244.3,224.8L215,195.5c6.8-11.5,11.2-21.1,11.2-34.5c0-31.9-25.9-57.8-57.8-57.8c-31.9,0-57.8,25.9-57.8,57.8s26,60.9,57.8,57.8c13-1.3,24.7-3.6,34.5-11.2l29.3,29.3c2.8,2.8,8.3,1.9,11.2-0.9C246.2,233.1,247.1,227.6,244.3,224.8L244.3,224.8z M127.6,161c0-22.6,18.3-40.9,40.9-40.9c22.6,0,40.9,18.3,40.9,40.9s-18.3,40.9-40.9,40.9C145.9,201.9,127.6,183.6,127.6,161L127.6,161z"/><path fill="#000000" d="M189.7,36.8c0-10.7-8.7-19.5-19.5-19.5H29.5C18.7,17.4,10,26.1,10,36.8v79.5v3.1v99.7c0,10.7,8.7,19.5,19.5,19.5h14.2l0.1-0.1c0.5,0.1,1,0.1,1.6,0.1h69.9c4.7,0,8.5-3.8,8.5-8.5s-3.8-8.5-8.5-8.5H58H45.4h-8.6c-5.4,0-9.7-4.4-9.7-9.7v-92.4v-3.1V44.1c0-5.4,4.4-9.7,9.7-9.7h126.2c5.4,0,9.7,4.4,9.7,9.7v34.4l0,0v0c0,4.7,3.8,8.5,8.5,8.5s8.5-3.8,8.5-8.5v0l0,0V36.8L189.7,36.8z"/><path fill="#000000" d="M42.8,70.1c0,4.7,3.8,8.5,8.5,8.5h97.3c4.7,0,8.5-3.8,8.5-8.5l0,0c0-4.7-3.8-8.5-8.5-8.5H51.3C46.7,61.6,42.8,65.4,42.8,70.1L42.8,70.1z"/><path fill="#000000" d="M42.8,121.7c0,4.7,3.8,8.5,8.5,8.5h47.5c4.7,0,8.5-3.8,8.5-8.5l0,0c0-4.7-3.8-8.5-8.5-8.5H51.3C46.7,113.2,42.8,117,42.8,121.7L42.8,121.7z"/><path fill="#000000" d="M42.8,171.9c0,4.7,3.8,8.5,8.5,8.5h30.8c4.7,0,8.5-3.8,8.5-8.5l0,0c0-4.7-3.8-8.5-8.5-8.5H51.3C46.7,163.4,42.8,167.2,42.8,171.9L42.8,171.9z"/></g></g>
</svg>